<svg xmlns="http://www.w3.org/2000/svg" width="300" height="500" viewBox="0 0 300 500" font-family="'Segoe UI',Roboto,Arial,sans-serif">
  <rect x="6" y="6" width="288" height="488" rx="26" fill="#ffffff" stroke="#c7ced6" stroke-width="2"/>
  <clipPath id="e3"><rect x="8" y="8" width="284" height="484" rx="24"/></clipPath>
  <g clip-path="url(#e3)">
    <rect x="8" y="8" width="284" height="484" fill="#e7ebf0"/>
    <rect x="8" y="8" width="284" height="52" fill="#5288c1"/>
    <circle cx="34" cy="34" r="15" fill="#ffffff"/>
    <text x="34" y="39" text-anchor="middle" font-size="15" fill="#5288c1" font-weight="bold">УК</text>
    <text x="58" y="30" font-size="14" fill="#ffffff" font-weight="bold">УК — бот</text>
    <text x="58" y="46" font-size="11" fill="#dbe7f5">списание материалов · 260706-042</text>
    <rect x="20" y="76" width="240" height="40" rx="12" fill="#ffffff"/>
    <text x="34" y="101" font-size="12.5" fill="#222">Выберите материал (остаток):</text>
    <g font-size="12.5" fill="#2f7bc4">
      <rect x="20" y="124" width="252" height="34" rx="8" fill="#ffffff" stroke="#dbe3ea"/>
      <text x="34" y="146">Смеситель кухонный — 8 шт</text>
      <rect x="20" y="164" width="252" height="34" rx="8" fill="#ffffff" stroke="#dbe3ea"/>
      <text x="34" y="186">Прокладка резиновая — 45 шт</text>
      <rect x="20" y="204" width="252" height="34" rx="8" fill="#ffffff" stroke="#dbe3ea"/>
      <text x="34" y="226">Герметик сантех. — 12 шт</text>
      <rect x="20" y="244" width="252" height="34" rx="8" fill="#ffffff" stroke="#dbe3ea"/>
      <text x="34" y="266">Лента ФУМ — 30 шт</text>
    </g>
    <!-- quantity prompt -->
    <rect x="20" y="292" width="252" height="60" rx="12" fill="#ffffff"/>
    <text x="34" y="316" font-size="12.5" fill="#222">Смеситель кухонный. Остаток: 8 шт.</text>
    <text x="34" y="336" font-size="12.5" fill="#222">Введите количество для списания:</text>
    <rect x="20" y="360" width="252" height="34" rx="8" fill="#f3f6f9" stroke="#c7ced6"/>
    <text x="34" y="382" font-size="13" fill="#1a1a1a">1|</text>
    <rect x="20" y="402" width="252" height="34" rx="8" fill="#4aa15a"/>
    <text x="146" y="424" text-anchor="middle" font-size="13" fill="#ffffff" font-weight="bold">Списать на заявку</text>
  </g>
</svg>
