<svg xmlns="http://www.w3.org/2000/svg" width="300" height="500" viewBox="0 0 300 500" font-family="'Segoe UI',Roboto,Arial,sans-serif">
  <rect x="6" y="6" width="288" height="488" rx="26" fill="#ffffff" stroke="#c7ced6" stroke-width="2"/>
  <clipPath id="scr1"><rect x="8" y="8" width="284" height="484" rx="24"/></clipPath>
  <g clip-path="url(#scr1)">
    <rect x="8" y="8" width="284" height="484" fill="#e7ebf0"/>
    <!-- header -->
    <rect x="8" y="8" width="284" height="52" fill="#5288c1"/>
    <circle cx="34" cy="34" r="15" fill="#ffffff"/>
    <text x="34" y="39" text-anchor="middle" font-size="15" fill="#5288c1" font-weight="bold">УК</text>
    <text x="58" y="30" font-size="14" fill="#ffffff" font-weight="bold">УК — бот</text>
    <text x="58" y="46" font-size="11" fill="#dbe7f5">жилой комплекс</text>
    <!-- bot bubble -->
    <rect x="20" y="76" width="210" height="58" rx="12" fill="#ffffff"/>
    <text x="34" y="100" font-size="12.5" fill="#222">Здравствуйте! Чем помочь?</text>
    <text x="34" y="118" font-size="12.5" fill="#222">Выберите действие ниже.</text>
    <!-- reply keyboard -->
    <g>
      <rect x="20" y="360" width="260" height="34" rx="8" fill="#ffffff" stroke="#c7ced6"/>
      <text x="150" y="382" text-anchor="middle" font-size="13.5" fill="#1a1a1a">📝 Создать заявку</text>
      <rect x="20" y="400" width="126" height="34" rx="8" fill="#ffffff" stroke="#c7ced6"/>
      <text x="83" y="422" text-anchor="middle" font-size="13.5" fill="#1a1a1a">📋 Мои заявки</text>
      <rect x="154" y="400" width="126" height="34" rx="8" fill="#ffffff" stroke="#c7ced6"/>
      <text x="217" y="422" text-anchor="middle" font-size="13.5" fill="#1a1a1a">👤 Профиль</text>
      <rect x="20" y="440" width="126" height="34" rx="8" fill="#ffffff" stroke="#c7ced6"/>
      <text x="83" y="462" text-anchor="middle" font-size="13.5" fill="#1a1a1a">🌐 Язык</text>
      <rect x="154" y="440" width="126" height="34" rx="8" fill="#ffffff" stroke="#c7ced6"/>
      <text x="217" y="462" text-anchor="middle" font-size="13.5" fill="#1a1a1a">⚙️ Настройки</text>
    </g>
  </g>
</svg>
