<svg xmlns="http://www.w3.org/2000/svg" width="300" height="500" viewBox="0 0 300 500" font-family="'Segoe UI',Roboto,Arial,sans-serif">
  <rect x="6" y="6" width="288" height="488" rx="26" fill="#ffffff" stroke="#c7ced6" stroke-width="2"/>
  <clipPath id="scr3"><rect x="8" y="8" width="284" height="484" rx="24"/></clipPath>
  <g clip-path="url(#scr3)">
    <rect x="8" y="8" width="284" height="484" fill="#e7ebf0"/>
    <rect x="8" y="8" width="284" height="52" fill="#5288c1"/>
    <circle cx="34" cy="34" r="15" fill="#ffffff"/>
    <text x="34" y="39" text-anchor="middle" font-size="15" fill="#5288c1" font-weight="bold">УК</text>
    <text x="58" y="30" font-size="14" fill="#ffffff" font-weight="bold">УК — бот</text>
    <text x="58" y="46" font-size="11" fill="#dbe7f5">создание заявки • шаг 5 из 5</text>
    <!-- summary bubble -->
    <rect x="20" y="76" width="250" height="176" rx="12" fill="#ffffff"/>
    <text x="34" y="100" font-size="12.5" fill="#222" font-weight="bold">Проверьте заявку:</text>
    <text x="34" y="124" font-size="12" fill="#333">Категория: 🚿 Сантехника</text>
    <text x="34" y="144" font-size="12" fill="#333">Адрес: Двор 1 · Дом 14В · кв. 42</text>
    <text x="34" y="164" font-size="12" fill="#333">Срочность: Обычная</text>
    <text x="34" y="184" font-size="12" fill="#333">Описание: Течёт кран на кухне,</text>
    <text x="34" y="200" font-size="12" fill="#333">капает под мойку.</text>
    <text x="34" y="224" font-size="12" fill="#333">Фото: 📎 2 файла</text>
    <text x="34" y="244" font-size="11" fill="#8a8f96">Номер присвоится после отправки</text>
    <!-- inline buttons -->
    <rect x="20" y="264" width="250" height="36" rx="8" fill="#4aa15a"/>
    <text x="145" y="287" text-anchor="middle" font-size="13.5" fill="#ffffff" font-weight="bold">✅ Отправить заявку</text>
    <rect x="20" y="306" width="122" height="34" rx="8" fill="#ffffff" stroke="#dbe3ea"/>
    <text x="81" y="328" text-anchor="middle" font-size="12.5" fill="#2f7bc4">✏️ Изменить</text>
    <rect x="148" y="306" width="122" height="34" rx="8" fill="#f3f4f6" stroke="#dbe3ea"/>
    <text x="209" y="328" text-anchor="middle" font-size="12.5" fill="#8a8f96">✖️ Отмена</text>
  </g>
</svg>
