<svg xmlns="http://www.w3.org/2000/svg" width="300" height="500" viewBox="0 0 300 500" font-family="'Segoe UI',Roboto,Arial,sans-serif">
  <rect x="6" y="6" width="288" height="488" rx="26" fill="#ffffff" stroke="#c7ced6" stroke-width="2"/>
  <clipPath id="scr2"><rect x="8" y="8" width="284" height="484" rx="24"/></clipPath>
  <g clip-path="url(#scr2)">
    <rect x="8" y="8" width="284" height="484" fill="#e7ebf0"/>
    <rect x="8" y="8" width="284" height="52" fill="#5288c1"/>
    <circle cx="34" cy="34" r="15" fill="#ffffff"/>
    <text x="34" y="39" text-anchor="middle" font-size="15" fill="#5288c1" font-weight="bold">УК</text>
    <text x="58" y="30" font-size="14" fill="#ffffff" font-weight="bold">УК — бот</text>
    <text x="58" y="46" font-size="11" fill="#dbe7f5">создание заявки • шаг 1 из 5</text>
    <!-- bubble with inline keyboard -->
    <rect x="20" y="76" width="240" height="40" rx="12" fill="#ffffff"/>
    <text x="34" y="101" font-size="12.5" fill="#222">Выберите категорию заявки:</text>
    <!-- inline buttons -->
    <g font-size="13" fill="#2f7bc4">
      <rect x="20" y="124" width="240" height="34" rx="8" fill="#ffffff" stroke="#dbe3ea"/>
      <text x="140" y="146" text-anchor="middle">🚿 Сантехника</text>
      <rect x="20" y="164" width="240" height="34" rx="8" fill="#ffffff" stroke="#dbe3ea"/>
      <text x="140" y="186" text-anchor="middle">💡 Электрика</text>
      <rect x="20" y="204" width="240" height="34" rx="8" fill="#ffffff" stroke="#dbe3ea"/>
      <text x="140" y="226" text-anchor="middle">🧹 Уборка</text>
      <rect x="20" y="244" width="240" height="34" rx="8" fill="#ffffff" stroke="#dbe3ea"/>
      <text x="140" y="266" text-anchor="middle">🔧 Общий ремонт</text>
      <rect x="20" y="284" width="240" height="34" rx="8" fill="#ffffff" stroke="#dbe3ea"/>
      <text x="140" y="306" text-anchor="middle">❓ Другое</text>
    </g>
    <rect x="20" y="330" width="240" height="34" rx="8" fill="#f3f4f6" stroke="#dbe3ea"/>
    <text x="140" y="352" text-anchor="middle" font-size="13" fill="#8a8f96">✖️ Отмена</text>
  </g>
</svg>
