<svg xmlns="http://www.w3.org/2000/svg" viewBox="0 0 64 64" width="64" height="64" role="img" aria-label="PROFK">
  <circle cx="32" cy="32" r="31.5" fill="#eef7ef"/>
  <circle cx="32" cy="32" r="31" fill="none" stroke="#dfeae0" stroke-width="1"/>
  <g fill="none" stroke="#333333" stroke-width="3.2" stroke-linejoin="round" stroke-linecap="round">
    <!-- tall back building -->
    <path d="M33 31 L44 22 L55 31"/>
    <path d="M37 31 L37 46 L51 46 L51 31"/>
    <!-- front house -->
    <path d="M11 37 L25 25 L39 37"/>
    <path d="M15 37 L15 46 L35 46 L35 37"/>
    <!-- door -->
    <path d="M22 46 L22 40 L28 40 L28 46"/>
  </g>
  <!-- baseline -->
  <path d="M9 46.4 L55 46.4" stroke="#333333" stroke-width="3.2" stroke-linecap="round"/>
  <!-- green leaf -->
  <path d="M43 12 C51 12 57 15 57 15 C57 15 55 25 47 26 C42 26.5 39.5 22.5 40 18.5 C40.4 15 41.5 12.6 43 12 Z" fill="#44c24a"/>
  <path d="M45.5 21.5 C48 18.5 52 16 55.5 15.2" fill="none" stroke="#ffffff" stroke-width="1.4" stroke-linecap="round" opacity="0.85"/>
</svg>
